<svg width="49" height="48" viewBox="0 0 49 48" fill="none" xmlns="http://www.w3.org/2000/svg">
<path d="M30.7172 21.6691C30.4298 22.6214 30.1563 23.5253 29.8842 24.4291C29.83 24.6105 29.7856 24.7959 29.7231 24.9745C29.5357 25.506 29.2108 25.661 28.6707 25.4576C28.1223 25.2513 27.5823 25.0271 27.0075 24.7987C26.6562 25.5116 26.3452 26.1303 26.7867 26.9705C27.5642 28.4502 28.1987 30.0032 28.8915 31.5272C28.9554 31.667 29.0206 31.8123 29.0525 31.9618C29.1303 32.33 29.0067 32.629 28.643 32.7536C28.3084 32.8685 28.021 32.7314 27.8558 32.42C27.6933 32.1155 27.5628 31.7957 27.4212 31.4815C26.7978 30.0974 26.1647 28.7173 25.558 27.3262C25.415 26.9968 25.2304 26.9082 24.8722 26.8542C23.9045 26.7103 23.4338 27.0895 23.0951 27.9934C22.5564 29.4274 21.8719 30.8088 21.2222 32.1999C21.1153 32.4283 20.9029 32.683 20.6821 32.7577C20.4877 32.8242 20.0879 32.7273 20.0032 32.5778C19.8741 32.3494 19.8366 31.9688 19.938 31.7279C20.5835 30.2025 21.2777 28.6979 21.9552 27.1878C21.9691 27.156 21.9858 27.1255 21.9997 27.0937C22.4731 26.0375 22.4676 25.924 21.8539 24.7932C21.3388 24.9994 20.8182 25.214 20.2934 25.4188C19.5937 25.6901 19.2826 25.5365 19.0619 24.8084C18.7481 23.7744 18.4399 22.739 18.1164 21.658C16.1325 22.2435 14.2471 22.8775 12.6421 24.162C11.8563 24.7904 11.8133 25.6652 11.6967 26.5345C11.5203 27.8508 11.3482 29.1672 11.1663 30.4822C11.0969 30.9874 10.7748 31.2255 10.3055 31.1396C9.91539 31.0677 9.73491 30.7521 9.8071 30.2676C10.0695 28.5291 10.2791 26.7795 10.6221 25.0562C10.7359 24.4859 11.1038 23.9018 11.5078 23.4657C12.6532 22.2324 14.1804 21.5888 15.7271 21.0102C16.3699 20.7693 17.0307 20.5756 17.7346 20.343C17.3889 19.6232 17.7666 19.1817 18.2733 18.7803C18.4899 18.6086 18.6787 18.4038 18.8842 18.2197C19.384 17.7698 19.6381 17.7657 20.1296 18.2321C21.4221 19.4585 22.7063 20.6932 23.9947 21.9238C24.1183 22.0414 24.2488 22.1535 24.4168 22.3044C24.5654 22.1743 24.707 22.0594 24.8389 21.9334C26.1134 20.714 27.3865 19.4917 28.661 18.2723C29.1997 17.7574 29.4441 17.7532 29.9827 18.2474C30.2118 18.4578 30.4256 18.6875 30.67 18.8799C31.149 19.2578 31.4336 19.6869 31.0754 20.3458C31.353 20.4399 31.5794 20.505 31.7973 20.5922C33.0316 21.0836 34.2894 21.5237 35.4876 22.0899C37.2591 22.9259 38.3781 24.2921 38.5933 26.3033C38.735 27.6224 38.9155 28.9374 39.0529 30.2565C39.1126 30.8254 38.9057 31.1092 38.5003 31.1424C38.063 31.1784 37.8617 30.9154 37.7853 30.3354C37.6007 28.918 37.366 27.5062 37.1925 26.086C37.0564 24.9731 36.4233 24.2353 35.5237 23.6595C34.0659 22.7224 32.4596 22.1549 30.7172 21.6691ZM19.5381 19.5291C19.1105 19.7381 18.9966 19.9831 19.1494 20.3929C19.3535 20.9396 19.4923 21.5099 19.6589 22.0691C19.8435 22.6906 20.0296 23.3107 20.2309 23.9834C21.1764 23.6014 22.0594 23.2443 23.0173 22.8567C21.8123 21.7023 20.6793 20.6199 19.5381 19.5291ZM25.8218 22.8553C26.7867 23.2443 27.6697 23.6014 28.6083 23.9807C28.9803 22.739 29.3177 21.5528 29.6981 20.3804C29.8425 19.9361 29.7051 19.7063 29.2927 19.5374C28.157 20.6226 27.0269 21.7037 25.8218 22.8553ZM23.1645 24.3475C23.3394 24.7004 23.4352 25.261 23.7323 25.4022C24.1266 25.5905 24.707 25.5462 25.1485 25.4105C25.3706 25.3427 25.4858 24.8596 25.5955 24.5454C25.6288 24.4485 25.5219 24.2381 25.4192 24.1689C24.6695 23.6637 23.9392 23.7716 23.1645 24.3475Z" fill="#CFCFCF"/>
<path d="M32.06 37.3187C31.9656 37.4447 31.8393 37.6689 31.6629 37.8433C30.7661 38.732 29.8636 39.6151 28.9487 40.4844C28.7238 40.6975 28.6544 40.8955 28.7154 41.2083C28.9612 42.4596 29.1639 43.7192 29.4055 44.9719C29.4735 45.3248 29.4874 45.6889 29.1528 45.8356C28.9098 45.9422 28.528 45.9325 28.2851 45.8148C27.1647 45.275 26.0623 44.695 24.9724 44.0929C24.6073 43.8908 24.331 43.9171 23.977 44.1123C22.9177 44.6964 21.8361 45.2404 20.7657 45.8038C20.4492 45.9699 20.1284 46.1138 19.7938 45.8702C19.4579 45.6238 19.5176 45.2888 19.5828 44.9303C19.8091 43.7095 20.0035 42.4845 20.2243 41.2623C20.2826 40.9425 20.2076 40.7169 19.9632 40.4871C19.0303 39.6109 18.1028 38.7278 17.2115 37.8101C17.0157 37.608 16.8297 37.2038 16.9047 36.9824C16.9838 36.7526 17.367 36.5311 17.6474 36.4827C18.9067 36.264 20.1798 36.1214 21.4418 35.9124C21.6515 35.8778 21.9097 35.6909 22.0097 35.5041C22.597 34.3898 23.1467 33.2562 23.7007 32.1253C23.8604 31.7986 24.07 31.4415 24.449 31.5398C24.7322 31.6131 25.0377 31.8886 25.1807 32.1557C25.761 33.234 26.2914 34.3386 26.8176 35.4445C26.9675 35.7601 27.1522 35.8999 27.5131 35.9442C28.7654 36.0937 30.0136 36.2889 31.2617 36.4716C31.6879 36.5353 32.0364 36.6903 32.06 37.3187ZM21.0878 44.0888C22.0638 43.5794 22.9177 43.1683 23.7354 42.6921C24.2616 42.3848 24.7128 42.3918 25.2348 42.6921C26.054 43.1641 26.905 43.5822 27.7991 44.0542C27.7991 43.8908 27.8116 43.8078 27.7977 43.7289C27.6492 42.8624 27.5104 41.9945 27.3382 41.1321C27.2285 40.5785 27.3285 40.1577 27.7728 39.7494C28.4794 39.0974 29.1111 38.3652 29.8109 37.6288C29.1583 37.5333 28.4947 37.4475 27.8366 37.3381C25.8263 37.0004 26.34 37.4018 25.4639 35.6743C25.3001 35.3518 25.1515 35.0196 24.9905 34.6957C24.8419 34.3967 24.685 34.1005 24.4782 33.6991C23.9631 34.7331 23.498 35.6508 23.0496 36.5768C22.8857 36.9145 22.6678 37.1291 22.2721 37.1651C21.8417 37.2052 21.4168 37.2883 20.9892 37.3533C20.3658 37.4475 19.7439 37.543 19.1385 37.6357C19.8633 38.3942 20.5338 39.1375 21.2502 39.8338C21.6154 40.1881 21.7223 40.548 21.6237 41.0366C21.4307 41.9945 21.2822 42.9634 21.0878 44.0888Z" fill="#CFCFCF"/>
<path d="M31.1574 8.98444C31.0796 11.577 30.6576 13.8401 29.3109 15.8486C28.5167 17.0335 27.4671 17.9526 26.237 18.6571C24.7848 19.4904 23.0049 19.2648 21.5874 18.1436C19.3327 16.3566 18.1721 13.9924 17.8472 11.1798C17.6806 9.73743 17.5417 8.30065 17.9416 6.86664C18.6677 4.25884 21.4264 1.75486 24.9625 2.01924C27.7614 2.22825 30.4993 4.63396 31.0158 7.51582C31.1157 8.07365 31.1255 8.64531 31.1574 8.98444ZM29.8079 9.49797C29.7357 8.84879 29.7427 8.17884 29.5774 7.55458C28.9749 5.27898 26.9201 3.25116 23.9629 3.37158C21.786 3.46017 19.7104 5.29698 19.1634 7.49506C18.8607 8.71175 19.0259 9.9326 19.1689 11.1493C19.4563 13.5951 20.5114 15.6202 22.4912 17.1345C23.4756 17.8875 24.6613 18.0425 25.5942 17.4847C26.9951 16.65 28.0988 15.5275 28.7736 14.0284C29.4205 12.5916 29.7052 11.0732 29.8079 9.49797Z" fill="#CFCFCF"/>
<path d="M8.43288 34.3896C8.72721 34.6803 8.99239 34.8492 9.12428 35.09C9.54634 35.861 9.94202 36.6486 10.3002 37.4515C10.4654 37.8238 10.7098 37.9525 11.0833 37.9996C11.9746 38.1131 12.8673 38.228 13.7475 38.401C13.9919 38.4495 14.3167 38.6695 14.3806 38.8785C14.4459 39.0917 14.3043 39.453 14.1321 39.6371C13.506 40.3043 12.8451 40.941 12.162 41.5514C11.8691 41.813 11.8399 42.0815 11.9024 42.4221C12.0634 43.3038 12.237 44.1827 12.348 45.0714C12.38 45.3219 12.2897 45.7026 12.1134 45.8327C11.9329 45.9656 11.5359 45.9573 11.3082 45.8521C10.4946 45.4742 9.70046 45.0492 8.92437 44.5994C8.56062 44.3876 8.27599 44.4139 7.92613 44.6104C7.17364 45.034 6.41283 45.4493 5.62701 45.8008C5.36878 45.9171 4.94532 45.9379 4.73429 45.7995C4.55658 45.6818 4.48855 45.2569 4.52326 44.9869C4.6371 44.0651 4.83564 43.1529 4.9592 42.2324C4.98558 42.0359 4.8884 41.7576 4.74956 41.6137C4.1012 40.9437 3.39592 40.3264 2.76005 39.6454C2.57956 39.453 2.46155 39.0848 2.51153 38.8356C2.54901 38.6529 2.88916 38.4467 3.12241 38.4024C4.00402 38.2349 4.89533 38.1159 5.78666 38.0065C6.16152 37.9608 6.40587 37.8376 6.57248 37.4639C6.93762 36.6459 7.34441 35.8458 7.77202 35.0582C7.8942 34.8284 8.14688 34.6706 8.43288 34.3896ZM10.8486 44.0762C10.7209 43.3328 10.6334 42.7224 10.5085 42.1175C10.4127 41.6552 10.4988 41.2981 10.8639 40.9604C11.3401 40.5202 11.7566 40.0163 12.2162 39.5208C11.5886 39.4225 10.9472 39.2924 10.2975 39.2315C9.84207 39.1886 9.57829 38.9824 9.39502 38.5796C9.12707 37.9927 8.82162 37.4238 8.47869 36.7386C8.13993 37.4182 7.84283 37.9747 7.58182 38.5477C7.39161 38.963 7.12088 39.1914 6.64468 39.2371C6.00186 39.2993 5.36461 39.4295 4.73985 39.5277C5.20217 40.0219 5.61174 40.5119 6.07823 40.9396C6.45864 41.2884 6.55026 41.658 6.44613 42.1425C6.31701 42.7418 6.23788 43.3508 6.11709 44.0775C6.77517 43.7329 7.33053 43.4657 7.86088 43.1557C8.27878 42.9107 8.65224 42.8968 9.0743 43.1432C9.60743 43.456 10.1669 43.7218 10.8486 44.0762Z" fill="#CFCFCF"/>
<path d="M36.5483 45.099C36.6913 44.2409 36.8232 43.2844 37.0204 42.3404C37.0953 41.9791 36.9982 41.7659 36.7496 41.5334C36.1054 40.9313 35.4599 40.3292 34.8642 39.6814C34.6699 39.4696 34.4783 39.0709 34.5533 38.8467C34.631 38.6183 35.0184 38.4065 35.3016 38.3498C36.1124 38.1878 36.9385 38.0896 37.7631 38.001C38.1963 37.9553 38.4768 37.8072 38.6614 37.3781C38.9946 36.6029 39.4028 35.861 39.7707 35.0997C39.9234 34.7827 40.1331 34.481 40.5038 34.5807C40.7634 34.6499 41.0549 34.8658 41.1855 35.0983C41.6158 35.8638 41.9935 36.6597 42.3586 37.4597C42.5058 37.7809 42.7099 37.9248 43.0514 37.9677C43.8914 38.0702 44.7285 38.1975 45.5657 38.3193C45.9267 38.3719 46.3071 38.4079 46.4571 38.8246C46.6098 39.2509 46.3238 39.5014 46.0628 39.7575C45.4588 40.3499 44.8618 40.952 44.244 41.532C43.983 41.777 43.8733 42.0054 43.9594 42.3888C44.1482 43.2276 44.2982 44.0803 44.3926 44.9343C44.4259 45.2375 44.3523 45.7012 44.151 45.841C43.9511 45.9808 43.4943 45.8866 43.2125 45.7579C42.4114 45.3925 41.6367 44.9703 40.8661 44.5454C40.5885 44.3931 40.3705 44.407 40.1011 44.5537C39.282 44.998 38.4545 45.4299 37.6187 45.8451C36.9982 46.1538 36.5247 45.8548 36.5483 45.099ZM40.5218 36.7317C40.1595 37.4224 39.8415 37.9913 39.5597 38.5768C39.3709 38.9699 39.1126 39.1886 38.6572 39.2329C38.0117 39.2966 37.373 39.4267 36.6872 39.536C37.1925 40.0496 37.6312 40.5312 38.1088 40.9728C38.4518 41.2898 38.5517 41.6261 38.4518 42.0815C38.3157 42.703 38.2435 43.3384 38.1255 44.0775C38.8211 43.7135 39.3931 43.4325 39.9443 43.1169C40.3316 42.8954 40.6815 42.8982 41.0674 43.1141C41.6353 43.4311 42.2198 43.719 42.889 44.0678C42.7751 43.3536 42.721 42.7362 42.5683 42.1452C42.4253 41.5943 42.6057 41.2316 43.0028 40.8745C43.454 40.4703 43.858 40.0122 44.3329 39.5263C43.6137 39.4142 42.9695 39.2869 42.3197 39.2246C41.8852 39.1831 41.6297 38.9823 41.452 38.6045C41.1743 38.0148 40.8731 37.4348 40.5218 36.7317Z" fill="#CFCFCF"/>
<path d="M32.7459 28.2288C33.2138 28.2288 33.6817 28.2246 34.1481 28.2302C34.5591 28.2343 34.8201 28.4572 34.8382 28.8544C34.8562 29.2808 34.5841 29.5451 34.1662 29.5562C33.2318 29.5811 32.2947 29.5811 31.3603 29.5562C30.941 29.5451 30.6842 29.2863 30.7064 28.8461C30.7272 28.4295 30.9896 28.2357 31.395 28.2316C31.8462 28.2246 32.2961 28.2288 32.7459 28.2288Z" fill="#CFCFCF"/>
</svg>
