<svg width="49" height="48" viewBox="0 0 49 48" fill="none" xmlns="http://www.w3.org/2000/svg">
<path d="M45 36.0021C44.9697 36.101 44.9343 36.1974 44.9103 36.2975C44.5785 37.7274 43.5914 38.7321 42.3487 38.8977C42.1682 38.9212 41.9856 38.9311 41.803 38.9311C30.5946 38.9323 19.3862 38.9299 8.17784 38.9348C6.8767 38.9348 5.86876 38.3466 5.30114 36.929C5.12271 36.4841 5.02046 35.9539 5.01733 35.4621C4.99437 31.7916 4.99751 28.1211 5.00794 24.4519C5.01316 22.5017 6.26734 21.0039 7.91385 20.9384C8.0568 20.9322 8.19975 20.9359 8.34374 20.9359C19.3434 20.9359 30.3442 20.9359 41.3439 20.9359C43.5069 20.9359 44.2279 21.5168 45 23.8797C45 27.9209 45 31.9622 45 36.0021ZM9.94225 36.6782C9.94225 36.2184 9.94121 35.776 9.94225 35.3336C9.9433 34.7008 9.92452 34.068 9.95269 33.4365C9.98191 32.7729 10.3993 32.3391 10.9262 32.3626C11.4354 32.3848 11.7943 32.8347 11.8141 33.486C11.8235 33.7937 11.8173 34.1026 11.8173 34.4116C11.8173 35.1618 11.8173 35.9107 11.8173 36.6794C12.7866 36.6794 13.7017 36.6794 14.6627 36.6794C14.6627 36.4817 14.6627 36.3161 14.6627 36.1504C14.6627 34.4227 14.6585 32.6963 14.6658 30.9685C14.6689 30.2246 15.0007 29.7796 15.5454 29.7438C16.1328 29.7043 16.5314 30.2122 16.5346 31.0402C16.5419 32.737 16.5366 34.4326 16.5366 36.1294C16.5366 36.3086 16.5366 36.4866 16.5366 36.6782C17.4987 36.6782 18.4012 36.6782 19.3476 36.6782C19.3476 36.4804 19.3476 36.3136 19.3476 36.148C19.3476 35.2841 19.3403 34.4203 19.3507 33.5576C19.3601 32.8396 19.7232 32.3774 20.2596 32.3626C20.8209 32.3477 21.2028 32.8013 21.2164 33.5478C21.232 34.4264 21.2195 35.3064 21.2226 36.1851C21.2226 36.3482 21.2372 36.5101 21.2445 36.6744C22.2034 36.6744 23.1196 36.6744 24.0576 36.6744C24.0576 34.7873 24.0566 32.9372 24.0576 31.0872C24.0586 30.2381 24.4155 29.7327 24.9998 29.7426C25.5841 29.7525 25.9295 30.2555 25.9316 31.1107C25.9337 32.1599 25.9316 33.2079 25.9316 34.2571C25.9316 35.0567 25.9316 35.8551 25.9316 36.6831C26.8832 36.6831 27.8003 36.6831 28.7571 36.6831C28.7571 36.494 28.7571 36.3284 28.7571 36.1628C28.7571 35.2681 28.7457 34.3733 28.7634 33.4798C28.7759 32.8149 29.1776 32.3613 29.7035 32.3638C30.2315 32.3663 30.6113 32.8248 30.6301 33.4897C30.6363 33.7047 30.6322 33.921 30.6322 34.1372C30.6322 34.9801 30.6322 35.8217 30.6322 36.6782C31.5984 36.6782 32.5145 36.6782 33.4682 36.6782C33.4682 36.4767 33.4682 36.3099 33.4682 36.143C33.4682 34.4932 33.4661 32.8421 33.4702 31.1922C33.4702 30.9772 33.4776 30.7572 33.5182 30.5496C33.6142 30.0552 34.018 29.7179 34.449 29.7438C34.8893 29.7698 35.2524 30.1368 35.3181 30.641C35.3421 30.8227 35.3411 31.0093 35.3411 31.1947C35.3432 32.8606 35.3557 34.5265 35.3328 36.1912C35.3265 36.6337 35.4486 36.7375 35.796 36.7214C36.4461 36.6917 37.0972 36.714 37.7483 36.7115C37.886 36.7115 38.0248 36.6955 38.1875 36.6856C38.1875 36.4681 38.1875 36.2987 38.1875 36.1307C38.1875 35.252 38.1802 34.3721 38.1917 33.4934C38.2001 32.8408 38.5642 32.391 39.0723 32.365C39.6003 32.3379 40.0093 32.7679 40.0521 33.4316C40.0782 33.8308 40.0605 34.2336 40.0615 34.6341C40.0626 35.3088 40.0615 35.9836 40.0615 36.7128C40.699 36.7128 41.2948 36.7189 41.8896 36.7115C42.7233 36.7004 43.1229 36.2147 43.1229 35.2149C43.1239 31.6989 43.1239 28.1829 43.1229 24.6657C43.1229 23.6622 42.7003 23.158 41.851 23.158C30.6029 23.1567 19.3549 23.1567 8.10689 23.158C7.29824 23.158 6.88087 23.6585 6.87878 24.615C6.87565 26.2031 6.87774 27.7924 6.87774 29.3805C6.87774 31.3702 6.87461 33.3599 6.87983 35.3484C6.88192 36.0689 7.20746 36.6139 7.75838 36.6621C8.46791 36.7251 9.18265 36.6782 9.94225 36.6782Z" fill="#CFCFCF"/>
<path d="M11.7922 14.5675C12.3671 15.0441 12.8596 15.4434 13.3458 15.8561C13.8978 16.3247 14.0397 16.9877 13.7267 17.5974C13.4115 18.2112 12.8982 18.3123 12.3274 17.8491C10.923 16.7081 9.51961 15.5646 8.12247 14.409C7.43903 13.8432 7.41608 12.8341 8.07656 12.2857C9.50395 11.0982 10.9376 9.92264 12.3733 8.75112C12.8857 8.3331 13.4481 8.47555 13.7381 9.0653C14.0261 9.65106 13.8936 10.2994 13.3917 10.74C13.2415 10.8718 13.087 10.9943 12.9347 11.1221C12.5716 11.4243 12.2085 11.7252 11.7483 12.1073C20.2908 12.1073 28.7059 12.1073 37.192 12.1073C37.0825 11.9914 37.0168 11.9076 36.9406 11.845C36.4825 11.4656 36.0151 11.1035 35.5622 10.7134C35.1052 10.3194 34.979 9.60314 35.2482 9.05332C35.5153 8.51016 36.0933 8.32112 36.5545 8.69388C38.0383 9.89335 39.5157 11.1035 40.9817 12.3389C41.5723 12.8368 41.5462 13.8406 40.9483 14.3371C39.521 15.5246 38.0883 16.7015 36.6526 17.873C36.1048 18.3203 35.5424 18.1952 35.2492 17.5908C34.9591 16.9917 35.1198 16.2928 35.6582 15.8455C36.1465 15.4394 36.639 15.0414 37.2171 14.5701C28.7122 14.5675 20.3064 14.5675 11.7922 14.5675Z" fill="#CFCFCF"/>
</svg>
