<svg width="49" height="48" viewBox="0 0 49 48" fill="none" xmlns="http://www.w3.org/2000/svg">
<path d="M16.4955 46C14.8816 45.7583 13.7238 44.7902 12.6693 43.6396C12.205 43.1325 11.6979 42.6644 11.211 42.1786C8.85737 39.83 6.50253 37.4802 4.14888 35.1305C1.95672 32.9418 1.9496 29.9522 4.13225 27.766C5.12382 26.7718 6.11896 25.7812 7.08441 24.8166C8.84074 26.568 10.5816 28.3027 12.3783 30.0944C11.882 30.5767 11.35 31.0909 10.8215 31.61C10.4225 32.0022 10.0223 32.392 9.63638 32.7961C9.35256 33.0923 9.3015 33.4976 9.56275 33.7666C10.3596 34.583 11.1825 35.3734 12.0304 36.2064C12.1397 35.8948 12.2335 35.6139 12.338 35.3366C13.0208 33.526 14.314 32.4311 16.2188 32.0721C17.6545 31.8007 19.0949 31.5495 20.533 31.2876C20.6446 31.2675 20.7527 31.2343 21.0021 31.1715C20.8477 30.9689 20.7658 30.7829 20.6244 30.6881C19.0391 29.6323 18.0084 28.1914 17.5262 26.3511C17.4918 26.2172 17.3528 26.0596 17.2246 26.0099C15.8863 25.4991 15.2082 24.55 15.2058 23.1328C15.2034 21.5438 15.1987 19.9536 15.207 18.3645C15.2296 13.6188 18.6745 9.74635 23.3973 9.15269C28.4442 8.51755 33.2513 12.3651 33.6277 17.4189C33.7619 19.2141 33.6907 21.0248 33.7037 22.8283C33.7132 24.0879 33.7073 25.3487 33.7049 26.6083C33.7013 28.0847 32.8214 29.0125 31.3572 28.9557C30.5449 28.9248 29.9156 29.0576 29.4014 29.7567C29.1152 30.1454 28.6271 30.3823 28.2459 30.707C28.1248 30.8101 28.0535 30.9713 27.9039 31.1846C28.804 31.3528 29.5878 31.4986 30.3716 31.6443C31.2586 31.8102 32.1552 31.937 33.0316 32.1479C34.7107 32.552 35.903 33.577 36.5027 35.1885C37.1107 36.8226 37.6261 38.491 38.1795 40.1452C38.1925 40.1831 38.1806 40.2281 38.1806 40.3146C33.1527 40.3146 28.1283 40.3146 23.1028 40.3146C23.0873 40.3431 23.0719 40.3727 23.0553 40.4011C23.4104 40.6986 23.7654 40.996 24.1644 41.329C22.6812 42.6561 21.3298 43.8944 19.9428 45.0924C19.3111 45.6386 18.4929 45.8105 17.6972 45.9989C17.2994 46 16.898 46 16.4955 46ZM18.7969 36.1353C19.64 36.9802 20.4558 37.7848 21.2538 38.6059C21.4605 38.818 21.6695 38.9034 21.9663 38.9034C26.5573 38.8951 31.1494 38.8974 35.7403 38.8974C35.8935 38.8974 36.0467 38.8974 36.2628 38.8974C35.9077 37.8298 35.5942 36.8226 35.2368 35.8296C34.7606 34.5072 33.8058 33.7192 32.4236 33.4597C31.2693 33.2428 30.0866 33.1303 28.962 32.8103C27.898 32.5082 27.1712 32.7416 26.4872 33.59C25.8911 34.3294 25.1501 34.9527 24.4601 35.6388C24.3271 35.5132 24.2214 35.4184 24.1217 35.3189C23.2785 34.4799 22.4437 33.6315 21.5875 32.8068C21.4676 32.6906 21.2325 32.6077 21.0721 32.6338C19.5177 32.8956 17.9656 33.1682 16.4183 33.4703C15.074 33.7322 14.1537 34.5238 13.6739 35.8083C13.5184 36.223 13.3996 36.6508 13.2452 37.0655C13.1657 37.28 13.1894 37.4269 13.3664 37.5904C13.7666 37.9601 14.1406 38.3559 14.5277 38.7398C15.0396 39.2482 15.3388 39.2529 15.8851 38.7612C16.8422 37.8997 17.7982 37.0359 18.7969 36.1353ZM24.4447 16.5847C25.3947 17.5979 26.3696 18.4901 27.6142 19.0494C28.8694 19.6147 30.1899 19.7687 31.565 19.7474C31.565 20.0424 31.565 20.2842 31.565 20.5354C31.8001 20.6242 32.0163 20.706 32.1873 20.77C32.1873 19.5578 32.3357 18.3503 32.1588 17.1914C31.6695 13.9861 29.7992 11.8105 26.701 10.8709C23.611 9.93358 20.8916 10.7595 18.665 13.0879C16.5821 15.2671 16.4776 17.9806 16.6819 20.7913C16.9028 20.7048 17.113 20.6231 17.3481 20.5306C17.3481 20.4027 17.3445 20.2747 17.3493 20.1479C17.3528 20.0247 17.3647 19.9002 17.3766 19.7272C20.2765 19.9038 22.5886 18.771 24.4447 16.5847ZM18.7624 21.1444C18.7624 22.4171 18.7149 23.6482 18.7731 24.8747C18.88 27.119 19.9487 28.8135 21.9723 29.8005C23.9483 30.7639 25.8923 30.5601 27.7222 29.3408C27.8528 29.2531 27.9692 29.1453 28.0927 29.0457C28.0773 29.0149 28.0607 28.9841 28.0452 28.9545C26.8613 28.9545 25.6773 28.9545 24.4839 28.9545C24.4839 28.4651 24.4839 28.0172 24.4839 27.5396C24.6762 27.5396 24.8318 27.5396 24.9886 27.5396C26.3233 27.5396 27.6581 27.529 28.9917 27.5479C29.2992 27.5527 29.4524 27.4448 29.5759 27.1782C29.9429 26.3855 30.1376 25.5596 30.1388 24.6875C30.14 23.6281 30.1305 22.5687 30.1459 21.5094C30.1507 21.2167 30.0497 21.1136 29.7612 21.0852C28.5167 20.9667 27.3458 20.5887 26.2758 19.95C25.6393 19.5696 25.0491 19.1122 24.4031 18.6643C22.8463 20.11 20.9522 20.943 18.7624 21.1444ZM5.3352 28.6073C3.59906 29.996 3.43874 32.3671 4.99676 33.9728C5.23664 34.2192 5.48245 34.4598 5.72589 34.7027C8.65787 37.6272 11.5851 40.5576 14.523 43.4761C16.1214 45.0627 18.5867 44.9123 19.9143 43.2178C18.8325 42.1335 17.7554 41.054 16.6748 39.9722C15.5918 40.8159 14.5313 40.7507 13.5267 39.7506C11.9235 38.1521 10.3109 36.5619 8.72793 34.9444C8.43936 34.6494 8.19949 34.2595 8.06411 33.8697C7.79811 33.0994 8.07717 32.4122 8.56524 31.8339C7.48104 30.7497 6.4099 29.6797 5.3352 28.6073ZM21.1256 42.1667C21.4094 41.8989 21.6956 41.6287 21.9414 41.3977C20.8477 40.2969 19.7908 39.2316 18.703 38.1355C18.4192 38.3926 18.12 38.6628 17.8516 38.9069C18.9619 40.0125 20.0259 41.0718 21.1256 42.1667ZM6.4289 27.5112C7.50954 28.5978 8.57593 29.669 9.61263 30.7106C9.85488 30.4819 10.1078 30.2437 10.3061 30.0565C9.23144 28.9817 8.16505 27.9141 7.08441 26.8322C6.88491 27.0384 6.65928 27.273 6.4289 27.5112ZM22.5031 31.5472C23.1776 32.2226 23.8462 32.8921 24.4554 33.5011C25.099 32.8613 25.7735 32.1906 26.4563 31.5128C25.1465 31.918 23.8082 31.8825 22.5031 31.5472ZM32.2134 25.761C31.9331 25.9103 31.5531 25.9873 31.4284 26.2077C31.2123 26.5905 31.1529 27.0633 31.0271 27.4993C32.16 27.6534 32.4616 27.2256 32.2134 25.761ZM17.3255 22.1789C16.9574 22.2891 16.6997 22.6481 16.651 23.1233C16.5905 23.717 16.822 24.1767 17.3255 24.4303C17.3255 23.6731 17.3255 22.9254 17.3255 22.1789ZM31.5828 24.4931C32.1279 24.1163 32.3262 23.6565 32.2526 23.0901C32.1991 22.6707 31.9901 22.3436 31.5828 22.1007C31.5828 22.9207 31.5828 23.6708 31.5828 24.4931Z" fill="#CFCFCF"/>
<path d="M35.581 16.1983C35.8304 14.7361 36.0632 13.371 36.3078 11.942C35.7698 11.942 35.258 11.942 34.7462 11.942C33.1169 11.9408 32.2714 11.1042 32.2702 9.49028C32.269 7.7721 32.2679 6.05391 32.2714 4.33573C32.2738 2.88534 33.1561 2.00255 34.5989 2.00137C37.7981 2.00018 40.9985 1.999 44.1976 2.00137C45.6096 2.00255 46.4871 2.86402 46.4931 4.26937C46.5014 6.07287 46.5026 7.87756 46.4931 9.68106C46.4848 11.0603 45.6048 12.0036 44.2273 11.9159C42.9389 11.8341 41.882 12.1944 40.8334 12.9124C39.2623 13.9872 37.6117 14.947 35.9943 15.9554C35.8874 16.0229 35.7758 16.0846 35.581 16.1983ZM37.5345 13.243C37.6117 13.2371 37.6449 13.2454 37.6651 13.2324C38.5177 12.7039 39.4155 12.2358 40.2088 11.6303C41.3951 10.7262 42.6729 10.3352 44.1596 10.4987C44.8389 10.5733 45.0811 10.2735 45.0823 9.57797C45.0847 7.84557 45.0835 6.11435 45.0823 4.38194C45.0811 3.65675 44.8567 3.42687 44.1359 3.42568C40.9652 3.42331 37.7957 3.42331 34.6251 3.42568C33.9232 3.42568 33.7071 3.64964 33.7071 4.35706C33.7047 6.08946 33.7059 7.82068 33.7071 9.55309C33.7083 10.3067 33.9161 10.5117 34.6821 10.5117C35.7698 10.5129 36.8564 10.5117 37.9905 10.5117C37.8361 11.4395 37.6877 12.3235 37.5345 13.243Z" fill="#CFCFCF"/>
<path d="M6.56666 19.5484C7.22454 19.1573 7.82305 18.8007 8.44412 18.4309C8.69112 18.8421 8.91794 19.2189 9.17206 19.6408C7.77911 20.475 6.40991 21.2962 5.00983 22.1363C4.17738 20.7535 3.35918 19.3955 2.51367 17.989C2.90793 17.7484 3.29268 17.515 3.72375 17.2519C4.1655 17.9795 4.59776 18.6916 5.05851 19.45C7.94417 7.46181 20.3299 1.72308 30.3395 5.04925C30.2077 5.47701 30.0747 5.90597 29.9429 6.33492C18.8729 2.84404 8.49756 10.5403 6.56666 19.5484Z" fill="#CFCFCF"/>
<path d="M41.9782 18.0089C41.5198 18.7649 41.128 19.4107 40.7123 20.098C40.3062 19.8575 39.9191 19.6276 39.4939 19.3764C40.3323 17.9817 41.1541 16.6142 41.9913 15.2219C43.3854 16.0561 44.7463 16.8714 46.15 17.7115C45.9101 18.1156 45.6809 18.5019 45.4268 18.9296C44.7475 18.5256 44.0884 18.1334 43.3807 17.7127C45.4149 24.5771 44.2713 30.8147 39.9642 36.5108C39.8538 36.4362 39.7944 36.4018 39.7409 36.358C39.4512 36.1257 39.1626 35.8911 38.8491 35.6363C42.8641 30.3254 43.9341 24.4989 41.9782 18.0089Z" fill="#CFCFCF"/>
<path d="M43.6291 4.87476C43.6291 5.32385 43.6291 5.7611 43.6291 6.23034C40.8005 6.23034 37.9884 6.23034 35.1455 6.23034C35.1455 5.78243 35.1455 5.34755 35.1455 4.87476C37.9623 4.87476 40.785 4.87476 43.6291 4.87476Z" fill="#CFCFCF"/>
<path d="M40.7852 7.70239C40.7852 8.16808 40.7852 8.60651 40.7852 9.0722C38.8959 9.0722 37.0256 9.0722 35.1362 9.0722C35.1362 8.60296 35.1362 8.16571 35.1362 7.70239C37.0161 7.70239 38.8745 7.70239 40.7852 7.70239Z" fill="#CFCFCF"/>
<path d="M43.6235 9.07844C43.1626 9.07844 42.7255 9.07844 42.2646 9.07844C42.2646 8.62094 42.2646 8.1836 42.2646 7.71069C42.7018 7.71069 43.1484 7.71069 43.6235 7.71069C43.6235 8.16108 43.6235 8.6079 43.6235 9.07844Z" fill="#CFCFCF"/>
</svg>
