<svg width="22" height="20" viewBox="0 0 22 20" fill="none" xmlns="http://www.w3.org/2000/svg">
<path d="M10.5516 1.03827C10.735 0.666646 11.265 0.666647 11.4484 1.03827L13.8457 5.89574C14.0642 6.33845 14.4865 6.64531 14.9751 6.7163L20.3356 7.49523C20.7457 7.55482 20.9095 8.05881 20.6127 8.34808L16.7338 12.1291C16.3803 12.4737 16.2189 12.9702 16.3024 13.4568L17.2181 18.7957C17.2882 19.2041 16.8594 19.5156 16.4926 19.3228L11.698 16.8021C11.261 16.5723 10.739 16.5723 10.302 16.8021L5.50738 19.3228C5.14057 19.5156 4.71185 19.2041 4.7819 18.7957L5.69759 13.4568C5.78105 12.9702 5.61973 12.4737 5.2662 12.1291L1.38728 8.34808C1.09052 8.05881 1.25428 7.55482 1.66438 7.49523L7.02492 6.7163C7.51349 6.64531 7.93583 6.33845 8.15433 5.89574L10.5516 1.03827Z" fill="#F1A32D" stroke="#F1A32D"/>
</svg>
