<svg width="49" height="48" viewBox="0 0 49 48" fill="none" xmlns="http://www.w3.org/2000/svg">
<path d="M32.5 6H2.5V32H32.5V6Z" stroke="#CFCFCF" stroke-width="3" stroke-linecap="round" stroke-linejoin="round"/>
<path d="M32.5 16H40.5L46.5 22V32H32.5V16Z" stroke="#CFCFCF" stroke-width="3" stroke-linecap="round" stroke-linejoin="round"/>
<path d="M11.5 42C14.2614 42 16.5 39.7614 16.5 37C16.5 34.2386 14.2614 32 11.5 32C8.73858 32 6.5 34.2386 6.5 37C6.5 39.7614 8.73858 42 11.5 42Z" stroke="#CFCFCF" stroke-width="3" stroke-linecap="round" stroke-linejoin="round"/>
<path d="M37.5 42C40.2614 42 42.5 39.7614 42.5 37C42.5 34.2386 40.2614 32 37.5 32C34.7386 32 32.5 34.2386 32.5 37C32.5 39.7614 34.7386 42 37.5 42Z" stroke="#CFCFCF" stroke-width="3" stroke-linecap="round" stroke-linejoin="round"/>
</svg>
