<svg width="112" height="112" viewBox="0 0 112 112" fill="none" xmlns="http://www.w3.org/2000/svg">
<g filter="url(#filter0_d_445_11272)">
<rect x="16" y="12" width="80" height="80" rx="40" fill="#33B469" shape-rendering="crispEdges"/>
<path d="M36.0003 73.5C35.6003 73.5 35.2202 73.34 34.9402 73.06C34.5602 72.68 34.4003 72.12 34.5403 71.6L37.0603 62.18C35.3803 59.06 34.5003 55.54 34.5003 51.98C34.5003 40.12 44.1403 30.48 56.0003 30.48C67.8603 30.48 77.5003 40.12 77.5003 51.98C77.5003 63.84 67.8603 73.48 56.0003 73.48C52.3803 73.48 48.8403 72.58 45.6803 70.86L36.4003 73.44C36.2603 73.48 36.1403 73.5 36.0003 73.5ZM45.8803 67.76C46.1403 67.76 46.4003 67.84 46.6403 67.96C49.4603 69.62 52.7003 70.5 56.0003 70.5C66.2003 70.5 74.5003 62.2 74.5003 52C74.5003 41.8 66.2003 33.5 56.0003 33.5C45.8003 33.5 37.5003 41.8 37.5003 52C37.5003 55.26 38.3603 58.44 39.9803 61.24C40.1803 61.58 40.2403 62 40.1403 62.38L38.1403 69.86L45.5003 67.82C45.6203 67.78 45.7603 67.76 45.8803 67.76Z" fill="white"/>
<path d="M61.48 63.52C60.24 63.52 58.96 63.24 57.62 62.66C56.36 62.12 55.1 61.4 53.88 60.5C52.68 59.62 51.5 58.62 50.42 57.54C49.34 56.44 48.34 55.28 47.46 54.08C46.56 52.82 45.8399 51.58 45.3199 50.36C44.7599 49.04 44.48 47.74 44.48 46.5C44.48 45.62 44.6399 44.78 44.9399 44C45.2599 43.18 45.78 42.44 46.46 41.8C47.74 40.54 49.58 40.0801 51.04 40.7801C51.54 41.0001 51.96 41.36 52.28 41.84L54.6 45.1C54.84 45.42 55.02 45.76 55.16 46.1C55.32 46.5 55.42 46.9001 55.42 47.2801C55.42 47.8001 55.28 48.3201 55 48.7801C54.82 49.0801 54.56 49.4401 54.22 49.7801L53.96 50.06C54.08 50.22 54.2199 50.42 54.4399 50.66C54.8599 51.14 55.3199 51.66 55.8199 52.16C56.3199 52.64 56.8199 53.12 57.3199 53.54C57.5599 53.74 57.76 53.9 57.92 54L58.2 53.72C58.56 53.36 58.92 53.08 59.28 52.9C59.94 52.48 60.96 52.38 61.86 52.76C62.18 52.88 62.5 53.06 62.84 53.3L66.1801 55.66C66.6401 55.98 67 56.42 67.24 56.92C67.44 57.42 67.52 57.86 67.52 58.32C67.52 58.92 67.38 59.5 67.12 60.06C66.86 60.58 66.56 61.04 66.2 61.46C65.56 62.16 64.82 62.68 64.02 63.02C63.22 63.36 62.36 63.52 61.48 63.52ZM49.58 43.48C49.46 43.48 49.0601 43.48 48.5601 43.98C48.1801 44.34 47.92 44.72 47.74 45.14C47.56 45.56 47.48 46.04 47.48 46.52C47.48 47.36 47.68 48.26 48.08 49.22C48.5 50.22 49.12 51.2801 49.88 52.34C50.66 53.4 51.54 54.46 52.52 55.44C53.5 56.4 54.54 57.3 55.62 58.1C56.66 58.86 57.72 59.46 58.78 59.92C60.3 60.58 61.7 60.74 62.84 60.26C63.24 60.1 63.6 59.82 63.96 59.46C64.14 59.26 64.28 59.06 64.4 58.8C64.46 58.66 64.5 58.5 64.5 58.36C64.5 58.32 64.4999 58.26 64.4399 58.14L61.1 55.82C60.96 55.72 60.82 55.64 60.7 55.6C60.62 55.64 60.5 55.7 60.28 55.92L59.52 56.68C58.94 57.26 58.02 57.42 57.28 57.16L56.92 57C56.46 56.76 55.94 56.4 55.36 55.9C54.8 55.42 54.2601 54.92 53.6801 54.36C53.1201 53.78 52.62 53.24 52.14 52.68C51.62 52.06 51.26 51.56 51.02 51.14L50.8 50.62C50.74 50.42 50.72 50.2 50.72 50C50.72 49.44 50.92 48.94 51.3 48.54L52.0601 47.76C52.2801 47.54 52.36 47.42 52.4 47.34C52.34 47.2 52.26 47.08 52.16 46.94L49.8199 43.64L49.58 43.48Z" fill="white"/>
</g>
<defs>
<filter id="filter0_d_445_11272" x="0" y="0" width="112" height="112" filterUnits="userSpaceOnUse" color-interpolation-filters="sRGB">
<feFlood flood-opacity="0" result="BackgroundImageFix"/>
<feColorMatrix in="SourceAlpha" type="matrix" values="0 0 0 0 0 0 0 0 0 0 0 0 0 0 0 0 0 0 127 0" result="hardAlpha"/>
<feOffset dy="4"/>
<feGaussianBlur stdDeviation="8"/>
<feComposite in2="hardAlpha" operator="out"/>
<feColorMatrix type="matrix" values="0 0 0 0 0 0 0 0 0 0 0 0 0 0 0 0 0 0 0.25 0"/>
<feBlend mode="normal" in2="BackgroundImageFix" result="effect1_dropShadow_445_11272"/>
<feBlend mode="normal" in="SourceGraphic" in2="effect1_dropShadow_445_11272" result="shape"/>
</filter>
</defs>
</svg>
